<svg width="16" height="16" viewBox="0 0 16 16" fill="none" xmlns="http://www.w3.org/2000/svg">
<g clip-path="url(#clip0_4152_18046)">
<path d="M12.0003 6.6665L8.66699 6.6665" stroke="black" stroke-opacity="0.65" stroke-linecap="round"/>
<path d="M1.33301 4.63333C1.33301 4.04497 1.33301 3.7508 1.37924 3.50575C1.58277 2.42704 2.42655 1.58326 3.50527 1.37973C3.75031 1.3335 4.04449 1.3335 4.63284 1.3335C4.89062 1.3335 5.01952 1.3335 5.14339 1.34508C5.67744 1.39502 6.18402 1.60485 6.59697 1.94717C6.69275 2.02657 6.78389 2.11771 6.96617 2.29999L7.33301 2.66683C7.87686 3.21068 8.14879 3.48261 8.47442 3.66378C8.6533 3.7633 8.84305 3.8419 9.03991 3.89801C9.39827 4.00016 9.78284 4.00016 10.552 4.00016H10.8011C12.556 4.00016 13.4334 4.00016 14.0038 4.51314C14.0562 4.56033 14.1062 4.61025 14.1534 4.66272C14.6663 5.23306 14.6663 6.11052 14.6663 7.86543V9.3335C14.6663 11.8477 14.6663 13.1047 13.8853 13.8858C13.1042 14.6668 11.8472 14.6668 9.33301 14.6668H6.66634C4.15218 14.6668 2.89511 14.6668 2.11406 13.8858C1.33301 13.1047 1.33301 11.8477 1.33301 9.3335V4.63333Z" stroke="black" stroke-opacity="0.65"/>
</g>
<defs>
<clipPath id="clip0_4152_18046">
<rect width="16" height="16" fill="white"/>
</clipPath>
</defs>
</svg>
